<svg width="146" height="34" viewBox="0 0 146 34" fill="none" xmlns="http://www.w3.org/2000/svg">
<path d="M39.136 0.303999V34H30.928V13.792L23.392 34H16.768L9.184 13.744V34H0.976V0.303999H10.672L20.128 23.632L29.488 0.303999H39.136ZM66.0145 28.048H53.4385L51.4225 34H42.8305L55.0225 0.303999H64.5265L76.7185 34H68.0305L66.0145 28.048ZM63.9025 21.712L59.7265 9.376L55.5985 21.712H63.9025Z" fill="#36A2C9"/>
<path d="M118.589 0.303999V34H110.381V13.792L102.845 34H96.2211L88.6371 13.744V34H80.4291V0.303999H90.1251L99.5811 23.632L108.941 0.303999H118.589ZM132.7 6.88V13.696H143.692V20.032H132.7V27.424H145.132V34H124.492V0.303999H145.132V6.88H132.7Z" fill="#027098"/>
</svg>
