<svg width="318" height="49" viewBox="0 0 318 49" fill="none" xmlns="http://www.w3.org/2000/svg">
<path d="M39.136 2.304V36H30.928V15.792L23.392 36H16.768L9.184 15.744V36H0.976V2.304H10.672L20.128 25.632L29.488 2.304H39.136ZM43.4065 22.56C43.4065 19.808 43.9185 17.392 44.9425 15.312C45.9985 13.232 47.4225 11.632 49.2145 10.512C51.0065 9.392 53.0065 8.832 55.2145 8.832C57.1025 8.832 58.7505 9.216 60.1585 9.984C61.5985 10.752 62.7025 11.76 63.4705 13.008V9.216H71.6785V36H63.4705V32.208C62.6705 33.456 61.5505 34.464 60.1105 35.232C58.7025 36 57.0545 36.384 55.1665 36.384C52.9905 36.384 51.0065 35.824 49.2145 34.704C47.4225 33.552 45.9985 31.936 44.9425 29.856C43.9185 27.744 43.4065 25.312 43.4065 22.56ZM63.4705 22.608C63.4705 20.56 62.8945 18.944 61.7425 17.76C60.6225 16.576 59.2465 15.984 57.6145 15.984C55.9825 15.984 54.5905 16.576 53.4385 17.76C52.3185 18.912 51.7585 20.512 51.7585 22.56C51.7585 24.608 52.3185 26.24 53.4385 27.456C54.5905 28.64 55.9825 29.232 57.6145 29.232C59.2465 29.232 60.6225 28.64 61.7425 27.456C62.8945 26.272 63.4705 24.656 63.4705 22.608ZM111.793 8.928C115.121 8.928 117.761 9.936 119.713 11.952C121.697 13.968 122.689 16.768 122.689 20.352V36H114.529V21.456C114.529 19.728 114.065 18.4 113.137 17.472C112.241 16.512 110.993 16.032 109.393 16.032C107.793 16.032 106.529 16.512 105.601 17.472C104.705 18.4 104.257 19.728 104.257 21.456V36H96.0966V21.456C96.0966 19.728 95.6326 18.4 94.7046 17.472C93.8086 16.512 92.5606 16.032 90.9606 16.032C89.3606 16.032 88.0966 16.512 87.1686 17.472C86.2726 18.4 85.8246 19.728 85.8246 21.456V36H77.6166V9.216H85.8246V12.576C86.6566 11.456 87.7446 10.576 89.0886 9.936C90.4326 9.264 91.9526 8.928 93.6486 8.928C95.6646 8.928 97.4566 9.36 99.0246 10.224C100.625 11.088 101.873 12.32 102.769 13.92C103.697 12.448 104.961 11.248 106.561 10.32C108.161 9.392 109.905 8.928 111.793 8.928ZM153.677 22.176C153.677 22.944 153.629 23.744 153.533 24.576H134.957C135.085 26.24 135.613 27.52 136.541 28.416C137.501 29.28 138.669 29.712 140.045 29.712C142.093 29.712 143.517 28.848 144.317 27.12H153.053C152.605 28.88 151.789 30.464 150.605 31.872C149.453 33.28 147.997 34.384 146.237 35.184C144.477 35.984 142.509 36.384 140.333 36.384C137.709 36.384 135.373 35.824 133.325 34.704C131.277 33.584 129.677 31.984 128.525 29.904C127.373 27.824 126.797 25.392 126.797 22.608C126.797 19.824 127.357 17.392 128.477 15.312C129.629 13.232 131.229 11.632 133.277 10.512C135.325 9.392 137.677 8.832 140.333 8.832C142.925 8.832 145.229 9.376 147.245 10.464C149.261 11.552 150.829 13.104 151.949 15.12C153.101 17.136 153.677 19.488 153.677 22.176ZM145.277 20.016C145.277 18.608 144.797 17.488 143.837 16.656C142.877 15.824 141.677 15.408 140.237 15.408C138.861 15.408 137.693 15.808 136.733 16.608C135.805 17.408 135.229 18.544 135.005 20.016H145.277ZM180.371 36.336C177.907 36.336 175.699 35.936 173.747 35.136C171.795 34.336 170.227 33.152 169.043 31.584C167.891 30.016 167.283 28.128 167.219 25.92H175.955C176.083 27.168 176.515 28.128 177.251 28.8C177.987 29.44 178.947 29.76 180.131 29.76C181.347 29.76 182.307 29.488 183.011 28.944C183.715 28.368 184.067 27.584 184.067 26.592C184.067 25.76 183.779 25.072 183.203 24.528C182.659 23.984 181.971 23.536 181.139 23.184C180.339 22.832 179.187 22.432 177.683 21.984C175.507 21.312 173.731 20.64 172.355 19.968C170.979 19.296 169.795 18.304 168.803 16.992C167.811 15.68 167.315 13.968 167.315 11.856C167.315 8.72 168.451 6.272 170.723 4.512C172.995 2.72 175.955 1.824 179.603 1.824C183.315 1.824 186.307 2.72 188.579 4.512C190.851 6.272 192.067 8.736 192.227 11.904H183.347C183.283 10.816 182.883 9.968 182.147 9.36C181.411 8.72 180.467 8.4 179.315 8.4C178.323 8.4 177.523 8.672 176.915 9.216C176.307 9.728 176.003 10.48 176.003 11.472C176.003 12.56 176.515 13.408 177.539 14.016C178.563 14.624 180.163 15.28 182.339 15.984C184.515 16.72 186.275 17.424 187.619 18.096C188.995 18.768 190.179 19.744 191.171 21.024C192.163 22.304 192.659 23.952 192.659 25.968C192.659 27.888 192.163 29.632 191.171 31.2C190.211 32.768 188.803 34.016 186.947 34.944C185.091 35.872 182.899 36.336 180.371 36.336ZM212.638 29.04V36H208.462C205.486 36 203.166 35.28 201.502 33.84C199.838 32.368 199.006 29.984 199.006 26.688V16.032H195.742V9.216H199.006V2.688H207.214V9.216H212.59V16.032H207.214V26.784C207.214 27.584 207.406 28.16 207.79 28.512C208.174 28.864 208.814 29.04 209.71 29.04H212.638ZM244.57 9.216L227.77 48.72H218.938L225.082 35.088L214.186 9.216H223.354L229.546 25.968L235.69 9.216H244.57ZM255.747 0.48V36H247.539V0.48H255.747ZM286.943 22.176C286.943 22.944 286.895 23.744 286.799 24.576H268.223C268.351 26.24 268.879 27.52 269.807 28.416C270.767 29.28 271.935 29.712 273.311 29.712C275.359 29.712 276.783 28.848 277.583 27.12H286.319C285.871 28.88 285.055 30.464 283.871 31.872C282.719 33.28 281.263 34.384 279.503 35.184C277.743 35.984 275.775 36.384 273.599 36.384C270.975 36.384 268.639 35.824 266.591 34.704C264.543 33.584 262.943 31.984 261.791 29.904C260.639 27.824 260.063 25.392 260.063 22.608C260.063 19.824 260.623 17.392 261.743 15.312C262.895 13.232 264.495 11.632 266.543 10.512C268.591 9.392 270.943 8.832 273.599 8.832C276.191 8.832 278.495 9.376 280.511 10.464C282.527 11.552 284.095 13.104 285.215 15.12C286.367 17.136 286.943 19.488 286.943 22.176ZM278.543 20.016C278.543 18.608 278.063 17.488 277.103 16.656C276.143 15.824 274.943 15.408 273.503 15.408C272.127 15.408 270.959 15.808 269.999 16.608C269.071 17.408 268.495 18.544 268.271 20.016H278.543ZM289.641 22.56C289.641 19.808 290.153 17.392 291.177 15.312C292.233 13.232 293.657 11.632 295.449 10.512C297.241 9.392 299.241 8.832 301.449 8.832C303.209 8.832 304.809 9.2 306.249 9.936C307.721 10.672 308.873 11.664 309.705 12.912V0.48H317.913V36H309.705V32.16C308.937 33.44 307.833 34.464 306.393 35.232C304.985 36 303.337 36.384 301.449 36.384C299.241 36.384 297.241 35.824 295.449 34.704C293.657 33.552 292.233 31.936 291.177 29.856C290.153 27.744 289.641 25.312 289.641 22.56ZM309.705 22.608C309.705 20.56 309.129 18.944 307.977 17.76C306.857 16.576 305.481 15.984 303.849 15.984C302.217 15.984 300.825 16.576 299.673 17.76C298.553 18.912 297.993 20.512 297.993 22.56C297.993 24.608 298.553 26.24 299.673 27.456C300.825 28.64 302.217 29.232 303.849 29.232C305.481 29.232 306.857 28.64 307.977 27.456C309.129 26.272 309.705 24.656 309.705 22.608Z" fill="#36A2C9"/>
</svg>
